<?xml version="1.0" encoding="UTF-8"?>
<!DOCTYPE svg PUBLIC "-//W3C//DTD SVG 1.1//EN" "http://www.w3.org/Graphics/SVG/1.1/DTD/svg11.dtd">
<svg xmlns="http://www.w3.org/2000/svg" version="1.1" width="512px" height="512px" style="shape-rendering:geometricPrecision; text-rendering:geometricPrecision; image-rendering:optimizeQuality; fill-rule:evenodd; clip-rule:evenodd" xmlns:xlink="http://www.w3.org/1999/xlink">
<g><path style="opacity:0.989" fill="#4bbeeb" d="M 327.5,136.5 C 327.631,135.624 327.298,134.957 326.5,134.5C 325.646,135.522 324.646,136.355 323.5,137C 244.93,137.168 166.43,137.668 88,138.5C 87.6012,138.272 87.4346,137.938 87.5,137.5C 94.9374,129.071 103.604,122.071 113.5,116.5C 143.449,101.842 174.782,98.3424 207.5,106C 226.998,111.842 244.331,121.508 259.5,135C 271.833,135.667 284.167,135.667 296.5,135C 306.955,125.423 317.622,116.089 328.5,107C 345.497,106.5 362.497,106.333 379.5,106.5C 379.5,100.167 379.5,93.8333 379.5,87.5C 399.167,87.5 418.833,87.5 438.5,87.5C 438.5,107.5 438.5,127.5 438.5,147.5C 418.833,147.5 399.167,147.5 379.5,147.5C 379.5,141.167 379.5,134.833 379.5,128.5C 365.163,128.333 350.829,128.5 336.5,129C 333.019,131.053 330.019,133.553 327.5,136.5 Z M 398.5,106.5 C 405.5,106.5 412.5,106.5 419.5,106.5C 419.5,113.833 419.5,121.167 419.5,128.5C 412.5,128.5 405.5,128.5 398.5,128.5C 398.5,121.167 398.5,113.833 398.5,106.5 Z"/></g>
<g><path style="opacity:0.99" fill="#4fb8e9" d="M 327.5,136.5 C 319.227,142.767 311.227,149.434 303.5,156.5C 272.507,157.5 241.507,157.833 210.5,157.5C 210.5,162.5 210.5,167.5 210.5,172.5C 209.676,168.688 209.176,164.688 209,160.5C 208.505,162.473 208.338,164.473 208.5,166.5C 162.095,166.828 115.761,166.495 69.5,165.5C 72.7323,158.702 76.2323,152.036 80,145.5C 82.733,142.938 85.233,140.271 87.5,137.5C 87.4346,137.938 87.6012,138.272 88,138.5C 166.43,137.668 244.93,137.168 323.5,137C 324.646,136.355 325.646,135.522 326.5,134.5C 327.298,134.957 327.631,135.624 327.5,136.5 Z"/></g>
<g><path style="opacity:0.992" fill="#53b1e6" d="M 210.5,172.5 C 235.167,172.5 259.833,172.5 284.5,172.5C 286.396,179.257 288.062,186.09 289.5,193C 306.497,193.5 323.497,193.667 340.5,193.5C 340.5,187.167 340.5,180.833 340.5,174.5C 360.167,174.5 379.833,174.5 399.5,174.5C 399.5,186.5 399.5,198.5 399.5,210.5C 398.521,207.375 398.187,204.042 398.5,200.5C 392.907,200.193 387.407,200.527 382,201.5C 381.722,200.584 381.222,199.918 380.5,199.5C 380.5,197.5 380.5,195.5 380.5,193.5C 373.5,193.5 366.5,193.5 359.5,193.5C 358.883,193.389 358.383,193.056 358,192.5C 357.503,195.146 357.336,197.813 357.5,200.5C 259.833,200.5 162.167,200.5 64.5,200.5C 64.7845,198.585 64.4511,196.919 63.5,195.5C 65.0135,185.377 67.0135,175.377 69.5,165.5C 115.761,166.495 162.095,166.828 208.5,166.5C 208.338,164.473 208.505,162.473 209,160.5C 209.176,164.688 209.676,168.688 210.5,172.5 Z"/></g>
<g><path style="opacity:0.974" fill="#56abe4" d="M 359.5,193.5 C 359.5,200.5 359.5,207.5 359.5,214.5C 366.5,214.5 373.5,214.5 380.5,214.5C 380.5,209.5 380.5,204.5 380.5,199.5C 381.222,199.918 381.722,200.584 382,201.5C 387.407,200.527 392.907,200.193 398.5,200.5C 398.187,204.042 398.521,207.375 399.5,210.5C 399.5,218.167 399.5,225.833 399.5,233.5C 379.833,233.5 360.167,233.5 340.5,233.5C 340.5,227.167 340.5,220.833 340.5,214.5C 282.833,214.5 225.167,214.5 167.5,214.5C 166.812,219.567 166.145,224.733 165.5,230C 131.595,230.17 97.7619,230.67 64,231.5C 63.6012,231.272 63.4346,230.938 63.5,230.5C 64.1325,218.859 64.1325,207.193 63.5,195.5C 64.4511,196.919 64.7845,198.585 64.5,200.5C 162.167,200.5 259.833,200.5 357.5,200.5C 357.336,197.813 357.503,195.146 358,192.5C 358.383,193.056 358.883,193.389 359.5,193.5 Z"/></g>
<g><path style="opacity:0.99" fill="#5aa5e1" d="M 167.5,214.5 C 167.5,219.5 167.5,224.5 167.5,229.5C 208.168,229.333 248.835,229.5 289.5,230C 289.833,230.333 290.167,230.667 290.5,231C 288.926,236.706 287.926,242.539 287.5,248.5C 307.169,248.333 326.836,248.5 346.5,249C 350.011,251.853 352.677,255.353 354.5,259.5C 252.828,260.164 151.495,259.498 50.5,257.5C 55.1311,248.573 59.4645,239.573 63.5,230.5C 63.4346,230.938 63.6012,231.272 64,231.5C 97.7619,230.67 131.595,230.17 165.5,230C 166.145,224.733 166.812,219.567 167.5,214.5 Z"/></g>
<g><path style="opacity:0.99" fill="#5e9fdf" d="M 50.5,257.5 C 151.495,259.498 252.828,260.164 354.5,259.5C 359.746,265.438 364.746,271.772 369.5,278.5C 383.818,279.499 398.151,279.833 412.5,279.5C 412.5,272.167 412.5,264.833 412.5,257.5C 432.5,257.5 452.5,257.5 472.5,257.5C 472.5,265.5 472.5,273.5 472.5,281.5C 471.527,283.948 471.194,286.615 471.5,289.5C 465.5,289.5 459.5,289.5 453.5,289.5C 453.5,285.167 453.5,280.833 453.5,276.5C 446.5,276.5 439.5,276.5 432.5,276.5C 431.551,280.657 430.884,284.99 430.5,289.5C 404.167,289.5 377.833,289.5 351.5,289.5C 346.746,282.9 341.746,276.4 336.5,270C 298.168,269.5 259.835,269.333 221.5,269.5C 221.5,274.833 221.5,280.167 221.5,285.5C 238.833,285.5 256.167,285.5 273.5,285.5C 273.539,288.089 272.539,290.089 270.5,291.5C 234.84,290.167 198.84,289.5 162.5,289.5C 126.332,289.5 90.3318,289.833 54.5,290.5C 49.9788,288.047 45.3121,285.88 40.5,284C 38.1267,279.994 37.96,275.827 40,271.5C 43.2774,266.586 46.7774,261.92 50.5,257.5 Z"/></g>
<g><path style="opacity:0.962" fill="#609bde" d="M 432.5,276.5 C 432.5,283.5 432.5,290.5 432.5,297.5C 439.5,297.5 446.5,297.5 453.5,297.5C 453.5,294.833 453.5,292.167 453.5,289.5C 459.5,289.5 465.5,289.5 471.5,289.5C 471.194,286.615 471.527,283.948 472.5,281.5C 472.5,293.833 472.5,306.167 472.5,318.5C 452.831,318.667 433.164,318.5 413.5,318C 412.525,312.259 412.192,306.425 412.5,300.5C 394.83,300.667 377.164,300.5 359.5,300C 356.46,296.74 353.794,293.24 351.5,289.5C 377.833,289.5 404.167,289.5 430.5,289.5C 430.884,284.99 431.551,280.657 432.5,276.5 Z"/></g>
<g><path style="opacity:0.994" fill="#6199dd" d="M 54.5,290.5 C 90.3318,289.833 126.332,289.5 162.5,289.5C 198.84,289.5 234.84,290.167 270.5,291.5C 268.21,298.538 264.877,305.038 260.5,311C 266.5,311.333 272.5,311.667 278.5,312C 279.056,312.383 279.389,312.883 279.5,313.5C 205.872,313.5 132.205,313.5 58.5,313.5C 60.3051,307.975 61.1384,302.308 61,296.5C 60.0187,293.253 57.852,291.253 54.5,290.5 Z"/></g>
<g><path style="opacity:0.994" fill="#6594db" d="M 279.5,313.5 C 287.557,321.553 295.223,329.887 302.5,338.5C 293.446,338.806 284.446,338.472 275.5,337.5C 274.702,337.957 274.369,338.624 274.5,339.5C 272.734,337.229 270.734,335.063 268.5,333C 243.502,332.5 218.502,332.333 193.5,332.5C 193.5,337.5 193.5,342.5 193.5,347.5C 192.795,344.772 192.128,341.939 191.5,339C 152.331,338.169 113.331,338.335 74.5,339.5C 71.1614,337.386 67.4947,336.053 63.5,335.5C 62.3399,329.559 64.0065,324.726 68.5,321C 66.4748,319.323 64.1415,318.323 61.5,318C 60.6138,316.385 59.6138,314.885 58.5,313.5C 132.205,313.5 205.872,313.5 279.5,313.5 Z"/></g>
<g><path style="opacity:0.992" fill="#6790d9" d="M 193.5,347.5 C 212.5,347.5 231.5,347.5 250.5,347.5C 250.5,348.5 250.5,349.5 250.5,350.5C 192.105,352.172 133.438,353.172 74.5,353.5C 74.4012,350.327 75.0678,347.327 76.5,344.5C 75.8131,342.823 75.1465,341.156 74.5,339.5C 113.331,338.335 152.331,338.169 191.5,339C 192.128,341.939 192.795,344.772 193.5,347.5 Z"/></g>
<g><path style="opacity:0.968" fill="#688fd9" d="M 399.5,347.5 C 398.508,354.648 398.175,361.981 398.5,369.5C 393.167,369.5 387.833,369.5 382.5,369.5C 382.664,372.187 382.497,374.854 382,377.5C 381.802,375.618 381.302,373.952 380.5,372.5C 380.5,366.833 380.5,361.167 380.5,355.5C 373.5,355.5 366.5,355.5 359.5,355.5C 359.5,356.5 359.5,357.5 359.5,358.5C 358.518,361.962 358.185,365.629 358.5,369.5C 341.163,369.333 323.83,369.5 306.5,370C 307.598,370.77 307.598,371.603 306.5,372.5C 296.114,361.116 285.448,350.116 274.5,339.5C 274.369,338.624 274.702,337.957 275.5,337.5C 284.446,338.472 293.446,338.806 302.5,338.5C 308.38,344.04 314.38,349.707 320.5,355.5C 327.134,356.497 333.8,356.83 340.5,356.5C 340.5,349.833 340.5,343.167 340.5,336.5C 360.167,336.5 379.833,336.5 399.5,336.5C 399.5,340.167 399.5,343.833 399.5,347.5 Z"/></g>
<g><path style="opacity:0.994" fill="#6a8bd7" d="M 250.5,350.5 C 253.311,361.262 257.311,371.595 262.5,381.5C 262.291,382.086 261.957,382.586 261.5,383C 240.931,392.497 219.265,398.497 196.5,401C 180.514,401.981 164.514,402.481 148.5,402.5C 147.282,390.473 142.615,380.14 134.5,371.5C 131.232,369.359 127.732,368.025 124,367.5C 111.951,370.103 99.7839,372.103 87.5,373.5C 80.708,373.866 76.208,370.866 74,364.5C 73.1901,360.642 73.3567,356.976 74.5,353.5C 133.438,353.172 192.105,352.172 250.5,350.5 Z"/></g>
<g><path style="opacity:0.959" fill="#6b89d7" d="M 399.5,347.5 C 399.5,363.167 399.5,378.833 399.5,394.5C 379.833,394.5 360.167,394.5 340.5,394.5C 340.5,388.833 340.5,383.167 340.5,377.5C 330.494,377.666 320.494,377.5 310.5,377C 309.301,375.306 307.968,373.806 306.5,372.5C 307.598,371.603 307.598,370.77 306.5,370C 323.83,369.5 341.163,369.333 358.5,369.5C 358.185,365.629 358.518,361.962 359.5,358.5C 359.5,364.833 359.5,371.167 359.5,377.5C 366.5,377.5 373.5,377.5 380.5,377.5C 380.5,375.833 380.5,374.167 380.5,372.5C 381.302,373.952 381.802,375.618 382,377.5C 382.497,374.854 382.664,372.187 382.5,369.5C 387.833,369.5 393.167,369.5 398.5,369.5C 398.175,361.981 398.508,354.648 399.5,347.5 Z"/></g>
</svg>
